<?xml version="1.0" encoding="utf-8"?>
<!-- Generator: Adobe Illustrator 27.5.0, SVG Export Plug-In . SVG Version: 6.00 Build 0)  -->
<svg version="1.1" xmlns="http://www.w3.org/2000/svg" x="0px" y="0px"
     viewBox="0 0 500 500" style="enable-background:new 0 0 500 500;" xml:space="preserve">
<g id="Floor">
	<ellipse style="fill:#F5F5F5;" cx="250" cy="350.859" rx="222.942" ry="128.716"/>
</g>
    <g id="Shadows">
	<ellipse style="fill:#E0E0E0;" cx="88.784" cy="364.131" rx="32.532" ry="18.782"/>
        <polygon style="fill:#E0E0E0;" points="223.077,323.012 133.469,374.747 68.323,336.853 157.931,285.117 	"/>
        <path style="fill:#E0E0E0;" d="M369.114,429.256L148.823,302.071c-2.007-1.158-2.007-4.055,0-5.213l35.556-20.529
		c2.952-1.704,6.589-1.704,9.541,0l220.291,127.185c2.006,1.159,2.006,4.055,0,5.213l-35.557,20.529
		C375.703,430.96,372.066,430.96,369.114,429.256z"/>
</g>
    <g id="Plant">
	<g>
		<g>
			<path style="fill:#BA68C8;" d="M403.476,363.539l12.381,7.192c0,0-6.248-19.944-2.78-40.006
				c1.309-7.573,4.063-11.335,5.036-13.355c0.972-2.021,8.437-14.535,1.866-20.304c-6.572-5.769-21.991,5.706-21.3,36.605
				C399.034,349.53,403.476,363.539,403.476,363.539z"/>
            <path style="opacity:0.3;" d="M403.476,363.539l12.381,7.192c0,0-6.248-19.944-2.78-40.006
				c1.309-7.573,4.063-11.335,5.036-13.355c0.972-2.021,8.437-14.535,1.866-20.304c-6.572-5.769-21.991,5.706-21.3,36.605
				C399.034,349.53,403.476,363.539,403.476,363.539z"/>
            <path style="fill:#FFFFFF;" d="M409.232,367.331c-0.183,0-0.354-0.112-0.421-0.294c-0.047-0.128-4.722-13.11-4.476-33.941
				c0.247-20.931,11.238-32.084,11.349-32.195c0.175-0.174,0.46-0.173,0.634,0.003c0.175,0.175,0.174,0.459-0.002,0.634
				c-0.108,0.108-10.842,11.024-11.084,31.569c-0.244,20.653,4.374,33.494,4.421,33.622c0.086,0.233-0.034,0.49-0.267,0.575
				C409.335,367.322,409.283,367.331,409.232,367.331z"/>
		</g>
        <g>
			<path style="fill:#BA68C8;" d="M406.961,365.402l20.455,12.03c0,0,9.366-1.38,8.657-10.196
				c-0.709-8.816-4.514-10.894,0.224-14.767c4.738-3.874,5.961-4.13,5.734-7.927c-0.226-3.797-2.781-5.453-3.983-6.958
				c-1.202-1.505-4.552-4.661-2.194-9.24c2.358-4.579,5.551-9.003,0.809-11.102c-2.831-1.253-7.592,0.317-10.748,3.667
				c-3.156,3.35-5.759,5.759-8.749,6.536c-2.99,0.778-9.224,0.84-9.014,5.991c0.21,5.152,1.548,6.931,0.298,9.218
				C406.095,346.964,396.04,349.284,406.961,365.402z"/>
            <path style="fill:#FFFFFF;" d="M415.29,370.75c-0.232,0-0.428-0.177-0.447-0.412c-0.025-0.305-2.247-30.751,18.905-50.742
				c0.179-0.17,0.463-0.162,0.634,0.019c0.17,0.179,0.162,0.464-0.018,0.634c-20.833,19.689-18.651,49.716-18.627,50.017
				c0.02,0.247-0.164,0.464-0.411,0.483C415.315,370.749,415.302,370.75,415.29,370.75z"/>
            <path style="fill:#FFFFFF;" d="M418.958,344.613c-0.233,0-0.429-0.179-0.447-0.416c-0.598-8.058-6.207-12.2-6.264-12.241
				c-0.201-0.145-0.246-0.425-0.101-0.626c0.145-0.201,0.425-0.246,0.625-0.102c0.245,0.176,6.005,4.412,6.634,12.903
				c0.018,0.247-0.167,0.462-0.414,0.481C418.98,344.613,418.969,344.613,418.958,344.613z"/>
            <path style="fill:#FFFFFF;" d="M417.448,349.817c-0.107,0-0.215-0.037-0.3-0.115c-0.184-0.166-0.199-0.449-0.034-0.632
				c0.22-0.244,5.522-5.968,17.788-4.282c0.245,0.034,0.417,0.26,0.383,0.505c-0.034,0.245-0.253,0.413-0.506,0.384
				c-11.765-1.618-16.949,3.938-16.999,3.994C417.693,349.768,417.571,349.817,417.448,349.817z"/>
		</g>
	</g>
</g>
    <g id="Folder">
	<g>
		<g>
			<polygon style="fill:#BA68C8;" points="384.059,273.536 355.506,256.823 372.515,280.201 			"/>
            <polygon style="opacity:0.6;" points="384.059,273.536 355.506,256.823 372.515,280.201 			"/>
		</g>
        <path style="fill:#E0E0E0;" d="M367.092,335.421l-167.106-96.479c-1.459-0.843-2.359-2.4-2.359-4.085V120.769
			c0-3.631,3.931-5.901,7.076-4.085l167.106,96.479c1.459,0.843,2.359,2.4,2.359,4.085v114.088
			C374.168,334.967,370.237,337.236,367.092,335.421z"/>
        <path style="fill:#BA68C8;" d="M372.515,280.201l11.545-6.665v135.058c0,2.477-1.323,4.765-3.47,6l-11.413,6.611L372.515,280.201z
			"/>
        <path style="opacity:0.3;"
              d="M372.515,280.201l11.545-6.665v135.058c0,2.477-1.323,4.765-3.47,6l-11.413,6.611L372.515,280.201z"
        />
        <path style="fill:#EBEBEB;" d="M359.511,339.686l-167.106-96.479c-1.459-0.843-2.359-2.4-2.359-4.085V125.034
			c0-3.631,3.931-5.901,7.076-4.085l167.106,96.479c1.46,0.842,2.359,2.4,2.359,4.085v114.088
			C366.587,339.232,362.656,341.501,359.511,339.686z"/>
        <path style="fill:#FAFAFA;" d="M351.923,344.154l-167.106-96.479c-1.46-0.843-2.359-2.4-2.359-4.085V129.502
			c0-3.631,3.931-5.901,7.076-4.085l167.106,96.479c1.46,0.843,2.359,2.4,2.359,4.085v114.088
			C358.998,343.7,355.067,345.97,351.923,344.154z"/>
        <path style="fill:#BA68C8;" d="M158.936,127.987v167.709c0,4.847,2.586,9.325,6.783,11.749l196.969,113.714
			c4.367,2.521,9.826-0.631,9.826-5.673V280.201l-103.903-59.985l-17.924-41.411c-3.347-7.734-9.095-14.184-16.394-18.398
			l-65.758-37.963C164.269,119.981,158.936,123.06,158.936,127.987z"/>
        <path style="opacity:0.2;" d="M158.936,127.987v167.709c0,4.847,2.586,9.325,6.783,11.749l196.969,113.714
			c4.367,2.521,9.826-0.631,9.826-5.673V280.201l-103.903-59.985l-17.924-41.411c-3.347-7.734-9.095-14.184-16.394-18.398
			l-65.758-37.963C164.269,119.981,158.936,123.06,158.936,127.987z"/>
        <g>
			<g>
				<path style="fill:#BA68C8;" d="M315.061,310.954c-0.556-0.321-1.105-0.603-1.646-0.849c-0.438-12.855-9.42-28.103-20.441-34.467
					c-3.714-2.144-7.193-3.005-10.195-2.741c-4.202-13.62-13.853-27.024-25.091-33.513c-14.341-8.28-26.095-2.313-27.24,13.245
					c-0.687-0.48-1.384-0.927-2.09-1.335c-10.886-6.285-19.71-1.19-19.71,11.38c0,12.57,8.825,27.854,19.71,34.139l86.703,50.058
					c8.589,4.959,15.552,0.939,15.552-8.979S323.651,315.913,315.061,310.954z"/>
                <path style="opacity:0.4;fill:#FFFFFF;" d="M315.061,310.954c-0.556-0.321-1.105-0.603-1.646-0.849
					c-0.438-12.855-9.42-28.103-20.441-34.467c-3.714-2.144-7.193-3.005-10.195-2.741c-4.202-13.62-13.853-27.024-25.091-33.513
					c-14.341-8.28-26.095-2.313-27.24,13.245c-0.687-0.48-1.384-0.927-2.09-1.335c-10.886-6.285-19.71-1.19-19.71,11.38
					c0,12.57,8.825,27.854,19.71,34.139l86.703,50.058c8.589,4.959,15.552,0.939,15.552-8.979S323.651,315.913,315.061,310.954z"/>
			</g>
            <polygon style="fill:#FFFFFF;" points="241.19,309.833 261.615,347.078 283.448,333.849 274.816,328.975 274.816,292.113
				251.562,278.709 251.562,315.875 			"/>
		</g>
	</g>
</g>
    <g id="Arrow">
	<g>
		<path style="fill:#BA68C8;" d="M182.422,74.424c-45.817,0-84.613,30.054-97.736,71.52l-8.267-4.767
			c-1.058-0.613-2.383,0.099-2.482,1.315c-1.671,19.581,2.067,35.483,6.754,47.143c4.233,10.522,9.237,17.573,11.739,20.738
			c0.682,0.86,2.047,0.662,2.453-0.366c4.045-10.255,9.523-18.612,14.735-25.01c5.37-6.606,10.453-11.126,13.38-13.499
			c1.197-0.969,1.038-2.829-0.297-3.6l-9.919-5.726c10.305-37.362,44.551-64.815,85.197-64.815
			c42.643,0,78.225,30.192,86.542,70.363C279.862,115.426,235.934,74.424,182.422,74.424z"/>
        <path style="opacity:0.4;fill:#FFFFFF;" d="M182.422,74.424c-45.817,0-84.613,30.054-97.736,71.52l-8.267-4.767
			c-1.058-0.613-2.383,0.099-2.482,1.315c-1.671,19.581,2.067,35.483,6.754,47.143c4.233,10.522,9.237,17.573,11.739,20.738
			c0.682,0.86,2.047,0.662,2.453-0.366c4.045-10.255,9.523-18.612,14.735-25.01c5.37-6.606,10.453-11.126,13.38-13.499
			c1.197-0.969,1.038-2.829-0.297-3.6l-9.919-5.726c10.305-37.362,44.551-64.815,85.197-64.815
			c42.643,0,78.225,30.192,86.542,70.363C279.862,115.426,235.934,74.424,182.422,74.424z"/>
	</g>
</g>
    <g id="Files">
	<g>
		<g>
			<g>
				
					<ellipse transform="matrix(0.866 -0.5 0.5 0.866 17.973 187.6521)" style="fill:#BA68C8;" cx="359.146"
                             cy="60.288" rx="23.58" ry="40.841"/>

                <ellipse transform="matrix(0.866 -0.5 0.5 0.866 17.973 187.6521)" style="opacity:0.2;" cx="359.146"
                         cy="60.288" rx="23.58" ry="40.841"/>

                <ellipse transform="matrix(0.866 -0.5 0.5 0.866 17.258 186.937)" style="fill:#BA68C8;" cx="357.455"
                         cy="61.265" rx="23.58" ry="40.841"/>
			</g>
            <g>
				<path style="fill:#BA68C8;" d="M345.946,71.036l22.286,12.867c1.188,0.686,2.673-0.171,2.673-1.543v-27.5
					c0-1.388-0.741-2.671-1.943-3.365l-22.286-12.867c-1.188-0.686-2.673,0.171-2.673,1.544v27.5
					C344.003,69.059,344.744,70.342,345.946,71.036z"/>
                <path style="opacity:0.6;fill:#FFFFFF;" d="M345.946,71.036l22.286,12.867c1.188,0.686,2.673-0.171,2.673-1.543v-27.5
					c0-1.388-0.741-2.671-1.943-3.365l-22.286-12.867c-1.188-0.686-2.673,0.171-2.673,1.544v27.5
					C344.003,69.059,344.744,70.342,345.946,71.036z"/>
                <path style="fill:#BA68C8;" d="M348.227,66.957l17.869,10.317c0.953,0.55,2.143-0.138,2.143-1.238V55.403
					c0-1.113-0.594-2.142-1.558-2.698l-17.869-10.317c-0.953-0.55-2.143,0.138-2.143,1.238v20.633
					C346.669,65.372,347.263,66.4,348.227,66.957z"/>
                <path style="opacity:0.4;fill:#FFFFFF;" d="M368.242,55.4v20.633c0,1.104-1.192,1.793-2.146,1.237l-17.868-10.317
					c-0.963-0.556-1.555-1.581-1.555-2.694V43.626c0-1.104,1.184-1.784,2.138-1.237l17.868,10.317
					C367.65,53.262,368.242,54.287,368.242,55.4z"/>
                <g>
					<path style="fill:#FAFAFA;" d="M368.242,75.273v0.76c0,1.104-1.192,1.793-2.146,1.237l-17.868-10.317
						c-0.963-0.556-1.555-1.581-1.555-2.694v-2.014l4.672-3.966l5.52,7.861l5.397-6.412L368.242,75.273z"/>
                    <path style="fill:#FAFAFA;" d="M352.828,52.124c0,1.535,1.078,3.401,2.407,4.169c1.329,0.767,2.407,0.145,2.407-1.39
						c0-1.535-1.078-3.401-2.407-4.168C353.906,49.967,352.828,50.589,352.828,52.124z"/>
				</g>
			</g>
		</g>
        <g>
			<g>
				
					<ellipse transform="matrix(0.866 -0.5 0.5 0.866 -26.6599 226.433)" style="fill:#BA68C8;"
                             cx="409.195" cy="162.964" rx="23.58" ry="40.841"/>

                <ellipse transform="matrix(0.866 -0.5 0.5 0.866 -26.6599 226.433)" style="opacity:0.2;" cx="409.195"
                         cy="162.964" rx="23.58" ry="40.841"/>

                <ellipse transform="matrix(0.866 -0.5 0.5 0.866 -27.3747 225.7191)" style="fill:#BA68C8;" cx="407.504"
                         cy="163.941" rx="23.58" ry="40.841"/>
			</g>
            <g>
				<path style="fill:#BA68C8;" d="M396.726,141.303c-1.188-0.686-2.673,0.171-2.673,1.543v27.5c0,1.388,0.741,2.671,1.943,3.365
					l22.286,12.867c1.188,0.686,2.673-0.172,2.673-1.544v-20.442l-6.048-12.793L396.726,141.303z"/>
                <path style="opacity:0.6;fill:#FFFFFF;" d="M396.726,141.303c-1.188-0.686-2.673,0.171-2.673,1.543v27.5
					c0,1.388,0.741,2.671,1.943,3.365l22.286,12.867c1.188,0.686,2.673-0.172,2.673-1.544v-20.442l-6.048-12.793L396.726,141.303z"
                />
                <path style="fill:#BA68C8;" d="M414.128,156.475l0.78-4.675l6.033,12.801l-5.449-4.486
					C414.419,159.232,413.899,157.845,414.128,156.475z"/>
                <path style="opacity:0.4;fill:#FFFFFF;" d="M414.128,156.475l0.78-4.675l6.033,12.801l-5.449-4.486
					C414.419,159.232,413.899,157.845,414.128,156.475z"/>
                <g>
					<path style="fill:#FAFAFA;" d="M416.299,167.216c-0.104,0-0.209-0.026-0.305-0.082l-17.593-10.157
						c-0.293-0.169-0.394-0.544-0.225-0.836c0.169-0.292,0.545-0.394,0.836-0.224l17.593,10.157
						c0.293,0.169,0.394,0.544,0.225,0.836C416.717,167.106,416.511,167.216,416.299,167.216z"/>
                    <path style="fill:#FAFAFA;" d="M416.299,173.177c-0.104,0-0.209-0.026-0.305-0.082l-17.593-10.157
						c-0.293-0.169-0.394-0.543-0.225-0.836c0.169-0.292,0.545-0.393,0.836-0.224l17.593,10.157
						c0.293,0.169,0.394,0.544,0.225,0.836C416.717,173.067,416.511,173.177,416.299,173.177z"/>
                    <path style="fill:#FAFAFA;" d="M416.299,179.139c-0.104,0-0.209-0.026-0.305-0.082L398.402,168.9
						c-0.293-0.169-0.394-0.543-0.225-0.836c0.169-0.292,0.545-0.393,0.836-0.224l17.593,10.157
						c0.293,0.169,0.394,0.544,0.225,0.837C416.717,179.029,416.511,179.139,416.299,179.139z"/>
				</g>
			</g>
		</g>
        <g>
			<g>
				
					<ellipse transform="matrix(0.866 -0.5 0.5 0.866 -10.8364 165.5539)" style="fill:#BA68C8;"
                             cx="303.508" cy="102.998" rx="23.58" ry="40.841"/>

                <ellipse transform="matrix(0.866 -0.5 0.5 0.866 -10.8364 165.5539)" style="opacity:0.2;" cx="303.508"
                         cy="102.998" rx="23.58" ry="40.841"/>

                <ellipse transform="matrix(0.866 -0.5 0.5 0.866 -11.5511 164.8406)" style="fill:#BA68C8;" cx="301.816"
                         cy="103.975" rx="23.58" ry="40.841"/>
			</g>
            <g>
				<path style="fill:#BA68C8;" d="M290.308,113.746l22.286,12.867c1.188,0.686,2.673-0.171,2.673-1.543v-27.5
					c0-1.388-0.741-2.671-1.943-3.365l-22.286-12.867c-1.188-0.686-2.673,0.172-2.673,1.543v27.5
					C288.365,111.769,289.106,113.051,290.308,113.746z"/>
                <path style="opacity:0.6;fill:#FFFFFF;" d="M290.308,113.746l22.286,12.867c1.188,0.686,2.673-0.171,2.673-1.543v-27.5
					c0-1.388-0.741-2.671-1.943-3.365l-22.286-12.867c-1.188-0.686-2.673,0.172-2.673,1.543v27.5
					C288.365,111.769,289.106,113.051,290.308,113.746z"/>
                <path style="fill:#FAFAFA;" d="M296.381,99.31v9.332c0,0.766,0.621,1.387,1.387,1.387h8.095c1.189,0,1.827-1.398,1.047-2.296
					l-8.095-9.331C297.974,97.432,296.381,98.027,296.381,99.31z"/>
			</g>
		</g>
        <g>
			<path style="fill:#BA68C8;" d="M359.147,100.518c-0.392,0-0.708-0.317-0.708-0.709v-1.889c0-0.391,0.316-0.709,0.708-0.709
				s0.708,0.317,0.708,0.709v1.889C359.855,100.2,359.538,100.518,359.147,100.518z"/>
            <path style="fill:#BA68C8;" d="M359.147,206.298c-0.392,0-0.708-0.317-0.708-0.708v-3.778c0-0.391,0.316-0.708,0.708-0.708
				s0.708,0.317,0.708,0.708v3.778C359.855,205.981,359.538,206.298,359.147,206.298z M359.147,198.743
				c-0.392,0-0.708-0.317-0.708-0.708v-3.778c0-0.391,0.316-0.708,0.708-0.708s0.708,0.317,0.708,0.708v3.778
				C359.855,198.425,359.538,198.743,359.147,198.743z M359.147,191.187c-0.392,0-0.708-0.317-0.708-0.708v-3.778
				c0-0.391,0.316-0.708,0.708-0.708s0.708,0.317,0.708,0.708v3.778C359.855,190.87,359.538,191.187,359.147,191.187z
				 M359.147,183.631c-0.392,0-0.708-0.317-0.708-0.708v-3.778c0-0.391,0.316-0.708,0.708-0.708s0.708,0.317,0.708,0.708v3.778
				C359.855,183.314,359.538,183.631,359.147,183.631z M359.147,176.075c-0.392,0-0.708-0.317-0.708-0.708v-3.778
				c0-0.391,0.316-0.708,0.708-0.708s0.708,0.317,0.708,0.708v3.778C359.855,175.758,359.538,176.075,359.147,176.075z
				 M359.147,168.52c-0.392,0-0.708-0.317-0.708-0.708v-3.778c0-0.391,0.316-0.709,0.708-0.709s0.708,0.317,0.708,0.709v3.778
				C359.855,168.202,359.538,168.52,359.147,168.52z M359.147,160.964c-0.392,0-0.708-0.317-0.708-0.708v-3.778
				c0-0.391,0.316-0.708,0.708-0.708s0.708,0.317,0.708,0.708v3.778C359.855,160.647,359.538,160.964,359.147,160.964z
				 M359.147,153.408c-0.392,0-0.708-0.317-0.708-0.709v-3.778c0-0.391,0.316-0.709,0.708-0.709s0.708,0.317,0.708,0.709v3.778
				C359.855,153.091,359.538,153.408,359.147,153.408z M359.147,145.853c-0.392,0-0.708-0.317-0.708-0.708v-3.778
				c0-0.391,0.316-0.708,0.708-0.708s0.708,0.317,0.708,0.708v3.778C359.855,145.535,359.538,145.853,359.147,145.853z
				 M359.147,138.297c-0.392,0-0.708-0.317-0.708-0.709v-3.778c0-0.391,0.316-0.708,0.708-0.708s0.708,0.317,0.708,0.708v3.778
				C359.855,137.98,359.538,138.297,359.147,138.297z M359.147,130.741c-0.392,0-0.708-0.317-0.708-0.708v-3.778
				c0-0.391,0.316-0.708,0.708-0.708s0.708,0.317,0.708,0.708v3.778C359.855,130.424,359.538,130.741,359.147,130.741z
				 M359.147,123.185c-0.392,0-0.708-0.317-0.708-0.708v-3.778c0-0.391,0.316-0.709,0.708-0.709s0.708,0.317,0.708,0.709v3.778
				C359.855,122.868,359.538,123.185,359.147,123.185z M359.147,115.629c-0.392,0-0.708-0.317-0.708-0.708v-3.778
				c0-0.391,0.316-0.708,0.708-0.708s0.708,0.317,0.708,0.708v3.778C359.855,115.312,359.538,115.629,359.147,115.629z
				 M359.147,108.074c-0.392,0-0.708-0.317-0.708-0.709v-3.778c0-0.391,0.316-0.709,0.708-0.709s0.708,0.317,0.708,0.709v3.778
				C359.855,107.756,359.538,108.074,359.147,108.074z"/>
            <path style="fill:#BA68C8;" d="M359.147,211.965c-0.392,0-0.708-0.317-0.708-0.709v-1.889c0-0.391,0.316-0.708,0.708-0.708
				s0.708,0.317,0.708,0.708v1.889C359.855,211.648,359.538,211.965,359.147,211.965z"/>
		</g>
        <g>
			<path style="fill:#BA68C8;" d="M377.003,165.491c-0.261,0-0.511-0.144-0.635-0.393c-0.175-0.351-0.032-0.775,0.318-0.95
				l1.69-0.842c0.353-0.174,0.775-0.031,0.949,0.318c0.175,0.35,0.032,0.775-0.318,0.95l-1.69,0.842
				C377.216,165.467,377.109,165.491,377.003,165.491z"/>
            <path style="fill:#BA68C8;" d="M368.684,169.631c-0.261,0-0.511-0.144-0.635-0.393c-0.175-0.35-0.032-0.775,0.318-0.95
				l4.159-2.07c0.353-0.175,0.775-0.031,0.949,0.319c0.175,0.35,0.032,0.775-0.318,0.95l-4.159,2.07
				C368.897,169.607,368.789,169.631,368.684,169.631z"/>
            <path style="fill:#BA68C8;" d="M362.834,172.542c-0.261,0-0.511-0.144-0.635-0.393c-0.175-0.351-0.032-0.775,0.318-0.95
				l1.691-0.842c0.352-0.174,0.775-0.031,0.949,0.318c0.175,0.351,0.032,0.775-0.318,0.95l-1.69,0.842
				C363.047,172.518,362.94,172.542,362.834,172.542z"/>
		</g>
        <g>
			<path style="fill:#BA68C8;" d="M336.652,121.302c-0.24,0-0.474-0.122-0.606-0.342l-0.978-1.616
				c-0.203-0.334-0.096-0.77,0.238-0.973c0.336-0.203,0.771-0.096,0.973,0.239l0.979,1.616c0.203,0.335,0.096,0.77-0.238,0.973
				C336.903,121.269,336.777,121.302,336.652,121.302z"/>
            <path style="fill:#BA68C8;" d="M352.166,146.909c-0.24,0-0.474-0.122-0.606-0.341l-1.939-3.201
				c-0.203-0.334-0.096-0.77,0.238-0.973c0.336-0.202,0.771-0.095,0.973,0.239l1.94,3.201c0.203,0.334,0.096,0.77-0.238,0.973
				C352.417,146.876,352.291,146.909,352.166,146.909z M348.287,140.507c-0.24,0-0.474-0.122-0.607-0.341l-1.939-3.201
				c-0.203-0.334-0.096-0.77,0.238-0.973c0.336-0.203,0.771-0.095,0.973,0.239l1.939,3.201c0.203,0.335,0.096,0.77-0.238,0.973
				C348.538,140.474,348.412,140.507,348.287,140.507z M344.409,134.106c-0.24,0-0.474-0.122-0.606-0.341l-1.94-3.201
				c-0.203-0.334-0.096-0.77,0.238-0.973c0.336-0.203,0.771-0.095,0.973,0.239l1.939,3.201c0.203,0.335,0.096,0.77-0.238,0.973
				C344.66,134.072,344.534,134.106,344.409,134.106z M340.53,127.704c-0.24,0-0.474-0.122-0.606-0.341l-1.94-3.201
				c-0.203-0.335-0.096-0.77,0.238-0.973c0.337-0.203,0.771-0.095,0.973,0.239l1.939,3.201c0.203,0.334,0.096,0.77-0.238,0.973
				C340.781,127.671,340.655,127.704,340.53,127.704z"/>
            <path style="fill:#BA68C8;" d="M355.084,151.726c-0.24,0-0.474-0.122-0.606-0.341l-0.98-1.616
				c-0.203-0.335-0.097-0.77,0.238-0.973c0.336-0.202,0.771-0.095,0.973,0.239l0.979,1.616c0.203,0.335,0.097,0.77-0.238,0.973
				C355.335,151.693,355.209,151.726,355.084,151.726z"/>
		</g>
	</g>
</g>
    <g id="Stairs">
	<g>
		<polygon style="fill:#455A64;" points="81.344,322.926 124.799,348.139 124.799,361.469 81.344,336.257 		"/>
        <polygon style="fill:#263238;" points="148.214,310.235 148.214,335.026 124.799,348.139 124.799,361.469 193.072,323.157
			193.072,283.706 		"/>
        <polygon style="fill:#37474F;"
                 points="124.799,348.139 148.214,335.026 104.758,309.813 81.344,322.926 		"/>
        <polygon style="fill:#455A64;"
                 points="148.214,335.026 148.214,310.235 104.758,285.023 104.758,309.813 		"/>
        <polygon style="fill:#37474F;"
                 points="148.214,310.235 104.758,285.023 149.617,258.493 193.072,283.706 		"/>
	</g>
</g>
    <g id="Character">
	<g>
		<path style="fill:#263238;" d="M160.524,193.368c0,0-10.702,14.961-4.347,20.19c6.355,5.23,20.309,0.965,20.872-1.472
			C177.612,209.649,160.524,193.368,160.524,193.368z"/>
        <path style="fill:#FFA8A7;" d="M112.723,324.652l-15.74,20.919l4.367,3.453c0,0,6.296-1.32,8.53-9.647
			C112.113,331.049,112.723,324.652,112.723,324.652z"/>
        <path style="fill:#BA68C8;" d="M114.144,323.23c0,0,4.367,3.96,2.437,7.515c-1.929,3.554-5.281,6.397-5.382,11.069
			c-0.102,4.671-2.437,12.998-7.616,14.318c-5.179,1.32-10.256-0.486-10.155-2.325s3.554-8.236,3.554-8.236s4.756,2.945,8.268,0.102
			c3.512-2.843,4.324-14.826,4.324-14.826L114.144,323.23z"/>
        <path style="opacity:0.2;" d="M114.144,323.23c0,0,4.367,3.96,2.437,7.515c-1.929,3.554-5.281,6.397-5.382,11.069
			c-0.102,4.671-2.437,12.998-7.616,14.318c-5.179,1.32-10.256-0.486-10.155-2.325s3.554-8.236,3.554-8.236s4.756,2.945,8.268,0.102
			c3.512-2.843,4.324-14.826,4.324-14.826L114.144,323.23z"/>
        <path style="fill:#BA68C8;" d="M140.978,258.468c0,0-35.059,14.836-37.903,16.291c-2.843,1.455-7.819,4.023-7.311,15.432
			c0.508,11.41,3.362,39.741,3.362,39.741l19.227-36.964l49.642-23.626L140.978,258.468z"/>
        <path style="opacity:0.5;" d="M140.978,258.468c0,0-35.059,14.836-37.903,16.291c-2.843,1.455-7.819,4.023-7.311,15.432
			c0.508,11.41,3.362,39.741,3.362,39.741l19.227-36.964l49.642-23.626L140.978,258.468z"/>
        <path style="fill:#BA68C8;" d="M97.721,315.279c0.743,8.083,1.404,14.654,1.404,14.654l19.227-36.964l35.391-16.844l-8.044-6.291
			c-11.31,5.674-27.74,13.92-32.646,16.433c-6.245,3.199-8.176,12.254-13.557,24.828C98.927,312.426,98.332,313.832,97.721,315.279z
			"/>
        <path style="opacity:0.7;" d="M97.721,315.279c0.743,8.083,1.404,14.654,1.404,14.654l19.227-36.964l35.391-16.844l-8.044-6.291
			c-11.31,5.674-27.74,13.92-32.646,16.433c-6.245,3.199-8.176,12.254-13.557,24.828C98.927,312.426,98.332,313.832,97.721,315.279z
			"/>
        <polygon style="fill:#BA68C8;" points="143.891,266.029 147.509,271.501 144.675,271.928 		"/>
        <polygon style="opacity:0.7;" points="143.891,266.029 147.509,271.501 144.675,271.928 		"/>
        <g>
			<path style="fill:#BA68C8;" d="M97.192,353.807c0,0,0.501,0.84,0.501,5.073c0,4.233-1.65,5.071-3.783,5.832
				c-2.133,0.762-8.304,5.255-10.016,7.235c-1.713,1.98-8.567,4.037-15.345,2.818c-6.778-1.219-8.212-5.654-4.95-8.53
				c3.262-2.877,12.551-8.094,12.551-8.094L97.192,353.807z"/>
            <g>
				<path style="fill:#BA68C8;" d="M178.373,267.226l-15.08-3.487c0,0-41.888,21.004-48.134,24.203
					c-6.245,3.199-8.175,12.254-13.556,24.829c-4.048,9.459-9.331,22.44-12.819,30.239c0,0.001,2.479,6.584,10.339,4.928
					l0.003,0.004c2.667-5.811,7.369-11.019,14.206-20.243c5.929-8,8.238-15.063,9.137-19.294c0.544-2.557,2.48-4.576,5.021-5.194
					c6.915-1.681,21.003-5.326,35.878-10.453C184.311,285.539,178.373,267.226,178.373,267.226z"/>
                <path style="opacity:0.5;" d="M178.373,267.226l-15.08-3.487c0,0-41.888,21.004-48.134,24.203
					c-6.245,3.199-8.175,12.254-13.556,24.829c-4.048,9.459-9.331,22.44-12.819,30.239c0,0.001,2.479,6.584,10.339,4.928
					l0.003,0.004c2.667-5.811,7.369-11.019,14.206-20.243c5.929-8,8.238-15.063,9.137-19.294c0.544-2.557,2.48-4.576,5.021-5.194
					c6.915-1.681,21.003-5.326,35.878-10.453C184.311,285.539,178.373,267.226,178.373,267.226z"/>
                <path style="fill:#FFA8A7;" d="M88.784,343.009c-1.149,2.569-2.104,4.577-2.754,5.71c-2.626,4.57-10.301,9.52-12.985,11.858
					c-2.684,2.338-3.276,3.222-0.694,5.202c6.527,5.006,12.193-0.457,15.849-3.96c2.856-2.737,6.548-5.009,8.027-5.872
					c0.421-0.245,0.695-0.668,0.778-1.147c0.433-2.52,1.145-4.728,2.122-6.857l-0.003-0.004
					C91.262,349.593,88.784,343.01,88.784,343.009z"/>
			</g>
		</g>
        <polygon style="fill:#37474F;" points="162.38,281.545 136.006,296.771 92.159,271.415 118.529,255.878 		"/>
        <polygon style="fill:#263238;" points="138.844,277.213 128.95,271.501 135.152,267.92 145.046,273.632 		"/>
        <polygon style="fill:#263238;" points="134.885,292.969 148.214,285.124 122.166,269.359 		"/>
        <g>
			<path style="fill:#FFA8A7;" d="M135.665,245.921l-10.551,4.948c-4.228,0.991-9.317,2.879-9.317,2.879s-7.34,3-7.675,4.968
				c-0.335,1.968,5.508,6.71,10.643,4.403c1.035-0.466,2.904-1.405,4.282-1.551c1.378-0.146,5.47-0.791,8.432-3.616l8.532-2.341
				C140.011,255.611,144.406,247.146,135.665,245.921z"/>
            <path style="fill:#FFA8A7;" d="M128.834,260.64c-1.222,1.308-4.706,4.61-5.466,5.564c-0.76,0.954-2.556-1.499,0.592-5.155
				c0,0,4.192-1.449,7.601-4.138C131.561,256.91,130.056,259.332,128.834,260.64z"/>
		</g>
        <g>
			<path style="fill:#BA68C8;" d="M157.249,209.24L157.249,209.24c-5.005-0.781-9.875,2.141-11.463,6.951
				c-0.954,2.89-1.809,6.416-2.141,10.365c-0.914,10.866-1.168,16.298-1.168,16.298l-10.915,4.95c0,0,5.895,0.283,5.495,8.606
				l13.595-3.427L157.249,209.24z"/>
            <path style="opacity:0.3;fill:#FFFFFF;" d="M157.249,209.24L157.249,209.24c-5.005-0.781-9.875,2.141-11.463,6.951
				c-0.954,2.89-1.809,6.416-2.141,10.365c-0.914,10.866-1.168,16.298-1.168,16.298l-10.915,4.95c0,0,5.844,0.283,5.495,8.606
				l13.595-3.427L157.249,209.24z"/>
            <path style="fill:#BA68C8;"
                  d="M142.476,242.855c0,0,2.082,0.609,3.224,1.98c0,0-1.317-2.502-3.158-3.275L142.476,242.855z"/>
            <path style="opacity:0.1;fill:#FFFFFF;" d="M142.476,242.855c0,0,2.082,0.609,3.224,1.98c0,0-1.317-2.502-3.158-3.275
				L142.476,242.855z"/>
		</g>
        <path style="fill:#263238;" d="M152.468,184.577c0,0-6.743-1.991-4.306-9.607c2.437-7.616,19.614-10.866,32.554,0
			c0,0,9.081-1.403,9.081,11.283c0,12.686-5.077,18.464,2.742,21.767c0,0-4.773,4.516-8.632,0c0,0-0.812,9.904-15.435,6.452
			L152.468,184.577z"/>
        <path style="fill:#BA68C8;" d="M174.473,213.558l7.659,3.261v22.456c0,0-3.83,8.53-3.83,18.126c0,9.596,0,11.119,0,11.119
			s-15.663,5.579-27.804-0.457c-5.882-2.924-9.52-9.596-9.52-9.596s6.474-3.808,6.474-8.454c0-4.646-1.295-10.815-1.295-10.815
			s-4.539-3.96-3.732-10.891c0.863-7.414,14.823-19.068,14.823-19.068l5.199,0.713L174.473,213.558z"/>
        <g>
			<g>
				<g>
					<polygon style="fill:#FFA8A7;"
                             points="174.473,213.558 162.448,209.954 162.448,195.401 174.473,195.401 					"/>
				</g>
			</g>
            <path style="fill:#F28F8F;"
                  d="M162.448,209.954c4.25-1.641,8.691-4.933,11.047-10.506v-4.046h-11.047V209.954z"/>
            <path style="fill:#FFA8A7;" d="M159.646,175.689c0,0-10.998,0.644-9.639,19.446c0.628,8.696,2.665,13.198,9.36,12.868
				c7.587-0.374,18.355-5.587,17.649-20.464C176.31,172.664,159.646,175.689,159.646,175.689z"/>
            <path style="fill:#263238;" d="M174.473,195.401c0,0-3.014,0.794-3.014-3.524c0,0-13.398-0.907-16.356-14.203
				c0,0,1.321-3.979,9.685-3.979s15.395,7.395,13.212,17.562L174.473,195.401z"/>
            <polygon style="fill:#F28F8F;" points="158.07,191.364 158.07,197.828 154.284,196.666 			"/>
            <g>
				<path style="fill:#263238;" d="M163.765,192.051c0,0.727-0.59,1.317-1.317,1.317c-0.727,0-1.317-0.59-1.317-1.317
					c0-0.727,0.59-1.317,1.317-1.317C163.175,190.734,163.765,191.324,163.765,192.051z"/>
                <path style="fill:#263238;" d="M155.102,191.133c0,0.727-0.59,1.317-1.317,1.317c-0.727,0-1.317-0.59-1.317-1.317
					c0-0.727,0.59-1.317,1.317-1.317C154.513,189.816,155.102,190.406,155.102,191.133z"/>
                <path style="fill:#263238;" d="M152.181,188.39l2.575-1.53c0,0-0.989-1.027-1.972-0.41
					C151.8,187.068,152.181,188.39,152.181,188.39z"/>
			</g>
            <path style="fill:#F28F8F;" d="M158.396,199.969c0,0,2.499,0.228,4.24-1.135c0,0,0.29,2.233-1.581,2.66
				C159.184,201.921,158.396,199.969,158.396,199.969z"/>
            <path style="fill:#FFA8A7;" d="M173.407,195.891c-0.03-1.093,0.145-2.192,0.593-3.19c0.502-1.119,1.388-2.248,2.926-2.29
				c3.377-0.093,3.833,3.159,3.788,4.317c-0.12,3.04-2.58,6.324-7.162,6.45L173.407,195.891z"/>
		</g>
        <path style="fill:#FFA8A7;" d="M162.448,209.954l-3.547,4.608c-1.699,2.207-0.995,5.413,1.472,6.707l0,0
			c3.244,1.7,7.238,0.863,9.527-1.996l4.573-5.714L162.448,209.954z"/>
        <g>
			<path style="fill:#FFA8A7;" d="M162.38,265.398l-10.053,5.472c0,0-2.843-0.214-4.62,0c-1.777,0.214-6.499,1.078-7.718,1.128
				c-1.219,0.051-0.051,2.336,3.148,2.133c0,0-7.21,3.3-7.464,5.281c-0.254,1.98,5.78,6.478,10.815,3.96
				c1.015-0.508,2.843-1.523,4.214-1.726c1.371-0.203,5.433-1.016,8.276-3.96l8.428-2.691
				C167.406,274.995,171.163,266.262,162.38,265.398z"/>
            <g>
				<path style="fill:#BA68C8;" d="M182.132,216.819c0,0-6.103,4.212-5.083,17.18c1.02,12.968,0.011,23.631,0.011,23.631
					l-14.68,7.768c0,0,4.97,2.8,5.027,9.596c0,0,21.088-4.342,22.349-9.254c1.261-4.912,1.718-28.398,1.718-32.482
					C191.473,229.174,189.792,220.08,182.132,216.819z"/>
                <path style="opacity:0.3;fill:#FFFFFF;" d="M182.132,216.819c0,0-6.103,4.212-5.083,17.18
					c1.02,12.968,0.011,23.631,0.011,23.631l-14.68,7.768c0,0,4.97,2.8,5.027,9.596c0,0,21.088-4.342,22.349-9.254
					c1.261-4.912,1.718-28.398,1.718-32.482C191.473,229.174,189.792,220.08,182.132,216.819z"/>
                <path style="fill:#BA68C8;"
                      d="M177.06,257.63c0,0,2.633-0.102,4.715,0.863c0,0-1.728-1.531-4.622-2.035L177.06,257.63z"/>
                <path style="opacity:0.1;fill:#FFFFFF;" d="M177.06,257.63c0,0,2.633-0.102,4.715,0.863c0,0-1.728-1.531-4.622-2.035
					L177.06,257.63z"/>
			</g>
		</g>
        <path style="fill:#455A64;" d="M86.046,242.362l4.585,30.011c0.003,0.021,0.016,0.039,0.034,0.05l45.542,26.414
			c0.051,0.029,0.113-0.013,0.104-0.071l-4.447-29.102c-0.192-1.256-0.927-2.364-2.011-3.028l-41.779-25.621
			C87.1,240.418,85.873,241.233,86.046,242.362z"/>
        <path style="fill:#263238;" d="M136.207,298.836l24.328-14.091c1.142-0.661,1.845-1.881,1.845-3.2l0,0l-26.374,15.226
			L136.207,298.836z"/>
        <path style="fill:#37474F;" d="M112.404,271.283c0,2.144-1.505,3.012-3.361,1.941c-1.856-1.072-3.361-3.678-3.361-5.822
			c0-2.143,1.505-3.012,3.361-1.94C110.899,266.533,112.404,269.14,112.404,271.283z"/>
        <path style="opacity:0.2;"
              d="M157.249,240.814c0,0,9.193,2.498,14.067-4.407C171.316,236.407,168.163,245.323,157.249,240.814z"
        />
	</g>
</g>
</svg>
